<svg width="18" height="18" viewBox="0 0 18 18" fill="none" xmlns="http://www.w3.org/2000/svg">
<path d="M16.1876 9.33332V2.38647H11.8262V9.33332L13.9865 8.03332L16.1876 9.33332ZM16.1876 0.680176C16.6496 0.680176 17.0436 0.856282 17.3697 1.20832C17.7229 1.53332 17.8996 1.92601 17.8996 2.38647V12.7865C17.8996 13.2468 17.7229 13.6531 17.3697 14.0052C17.0436 14.3573 16.6496 14.5333 16.1876 14.5333H5.75279C5.29088 14.5333 4.88323 14.3573 4.53001 14.0052C4.17671 13.6531 4.0001 13.2468 4.0001 12.7865V2.38647C4.0001 1.92601 4.17671 1.53332 4.53001 1.20832C4.88323 0.856282 5.29088 0.680176 5.75279 0.680176H16.1876ZM2.2474 4.13332V16.2802H14.4349V17.9865H2.2474C1.7854 17.9865 1.37784 17.824 1.02453 17.499C0.698444 17.1468 0.5354 16.7406 0.5354 16.2802V4.13332H2.2474Z" fill="#666666"/>
</svg>
