<svg width="17" height="17" viewBox="0 0 17 17" fill="none" xmlns="http://www.w3.org/2000/svg">
<path d="M5.37904 9.90005L2.36252 13.8001H14.5095L10.5964 8.60005L7.57991 12.5001L5.37904 9.90005ZM16.2625 14.6532C16.2625 15.1136 16.086 15.5199 15.7321 15.8719C15.379 16.224 14.9712 16.4001 14.5095 16.4001H2.36252C1.90079 16.4001 1.49295 16.224 1.13991 15.8719C0.786868 15.5199 0.610352 15.1136 0.610352 14.6532V2.5469C0.610352 2.08653 0.786868 1.68024 1.13991 1.3282C1.49295 0.976069 1.90079 0.800049 2.36252 0.800049H14.5095C14.9712 0.800049 15.379 0.976069 15.7321 1.3282C16.086 1.68024 16.2625 2.08653 16.2625 2.5469V14.6532Z" fill="#666666"/>
</svg>
