<svg width="20" height="13" viewBox="0 0 20 13" fill="none" xmlns="http://www.w3.org/2000/svg">
<path d="M13.6817 7.18644C14.4425 7.18644 15.2712 7.29478 16.1686 7.51145C17.0651 7.72811 17.8938 8.08015 18.6547 8.56765C19.4156 9.05515 19.7964 9.61034 19.7964 10.2333V12.3864H14.579V10.2333C14.579 9.04163 14.0077 8.03959 12.8669 7.22701C13.0573 7.19997 13.3286 7.18644 13.6817 7.18644ZM4.266 7.51145C5.1634 7.29478 5.99208 7.18644 6.75295 7.18644C7.51382 7.18644 8.34252 7.29478 9.23904 7.51145C10.1356 7.72811 10.9512 8.08015 11.6851 8.56765C12.4451 9.05515 12.826 9.61034 12.826 10.2333V12.3864H0.638184V10.2333C0.638184 9.61034 1.01904 9.05515 1.77991 8.56765C2.54078 8.08015 3.36948 7.72811 4.266 7.51145ZM8.546 4.7083C8.0573 5.22292 7.45903 5.48015 6.75295 5.48015C6.04599 5.48015 5.4347 5.22292 4.91818 4.7083C4.40166 4.19367 4.14425 3.58432 4.14425 2.88015C4.14425 2.17598 4.40166 1.56663 4.91818 1.052C5.4347 0.537465 6.04599 0.280151 6.75295 0.280151C7.45903 0.280151 8.0573 0.537465 8.546 1.052C9.06252 1.56663 9.32077 2.17598 9.32077 2.88015C9.32077 3.58432 9.06252 4.19367 8.546 4.7083ZM15.5164 4.7083C14.9999 5.22292 14.3886 5.48015 13.6817 5.48015C12.9756 5.48015 12.3643 5.22292 11.8477 4.7083C11.3312 4.19367 11.073 3.58432 11.073 2.88015C11.073 2.17598 11.3312 1.56663 11.8477 1.052C12.3643 0.537465 12.9756 0.280151 13.6817 0.280151C14.3886 0.280151 14.9999 0.537465 15.5164 1.052C16.0329 1.56663 16.2903 2.17598 16.2903 2.88015C16.2903 3.58432 16.0329 4.19367 15.5164 4.7083Z" fill="#666666"/>
</svg>
