<svg width="17" height="19" viewBox="0 0 17 19" fill="none" xmlns="http://www.w3.org/2000/svg">
<path d="M9.84788 10.1052L13.4348 8.48017L9.84788 6.85517L8.21745 3.28018L6.58701 6.85517L3.00005 8.48017L6.58701 10.1052L8.21745 13.6802L9.84788 10.1052ZM14.2905 0.680176C14.7531 0.680176 15.16 0.856282 15.514 1.20832C15.867 1.53332 16.0435 1.92601 16.0435 2.38647V14.5333C16.0435 14.9937 15.867 15.4 15.514 15.752C15.16 16.1042 14.7531 16.2802 14.2905 16.2802H10.8261L8.21745 18.8802L5.60875 16.2802H2.14441C1.6818 16.2802 1.27483 16.1042 0.920917 15.752C0.567874 15.4 0.391357 14.9937 0.391357 14.5333V2.38647C0.391357 1.92601 0.567874 1.53332 0.920917 1.20832C1.27483 0.856282 1.6818 0.680176 2.14441 0.680176H14.2905Z" fill="#666666"/>
</svg>
