<svg width="13" height="13" viewBox="0 0 13 13" fill="none" xmlns="http://www.w3.org/2000/svg">
<path d="M6.82715 10.0205H3.69824L3.1709 13H2.10742L2.63477 10.0205H0.885742L1.05273 9.09766H2.78418L3.02148 7.78809H1.27246L1.43945 6.87402H3.1709L4.33105 0.203125L8.33008 0.211914C9.56641 0.211914 10.5273 0.545898 11.2129 1.21387C11.8984 1.88184 12.1885 2.79297 12.083 3.94727C11.96 5.16016 11.4736 6.10645 10.624 6.78613C9.77441 7.45996 8.67578 7.79688 7.32812 7.79688L4.08496 7.78809L3.85645 9.09766H6.99414L6.82715 10.0205ZM4.24316 6.87402L7.37207 6.88281C8.37402 6.88281 9.20312 6.625 9.85938 6.10938C10.5156 5.58789 10.8994 4.87012 11.0107 3.95605C11.1104 3.12988 10.9316 2.45898 10.4746 1.94336C10.0176 1.42773 9.35254 1.1582 8.47949 1.13477L5.23633 1.12598L4.24316 6.87402Z" fill="#DCDCDC"/>
</svg>
