<svg width="20" height="20" viewBox="0 0 20 20" fill="none" xmlns="http://www.w3.org/2000/svg">
    <path d="M0.942971 9.23938C1.19164 9.96397 1.55074 10.7229 2.01455 11.4958C2.74969 12.7191 3.76799 14.007 5.04455 15.3226L5.04461 15.3226C6.10227 16.4129 7.15647 17.3363 7.95808 17.995C8.35855 18.3241 8.69508 18.5864 8.93631 18.7698C9.05691 18.8614 9.15355 18.9332 9.22229 18.9837C9.25668 19.0089 9.28394 19.0286 9.30361 19.0428L9.32691 19.0595C9.33234 19.0633 9.3348 19.065 9.33508 19.0652L9.34307 19.0707L9.34302 19.0708L9.89071 19.4629C9.8908 19.463 9.89089 19.463 9.89097 19.4631C9.96029 19.5123 10.0397 19.5123 10.109 19.4631C10.1091 19.463 10.1092 19.463 10.1093 19.4629L10.657 19.0708L10.6571 19.0707C10.737 19.0135 12.8348 17.5062 14.9554 15.3226C16.2321 14.0069 17.2504 12.719 17.9856 11.4956C18.4499 10.7219 18.8107 9.96341 19.0566 9.24043L19.057 9.23938C19.3537 8.37333 19.5 7.53135 19.5 6.73193V6.73066C19.5021 5.87996 19.349 5.05501 19.0496 4.27846C18.7609 3.53244 18.3459 2.85967 17.8301 2.29658L17.8298 2.29617C17.3128 1.73055 16.7063 1.28417 16.0445 0.978541L16.0438 0.978224C15.3576 0.660026 14.6239 0.498118 13.8848 0.500017L13.8835 0.50002C12.8456 0.500018 11.8296 0.816963 10.9424 1.42114L10.9424 1.42115C10.7299 1.5658 10.5281 1.72468 10.3367 1.89794L10.0011 2.20179L9.66556 1.89794C9.47419 1.72468 9.27236 1.5658 9.05993 1.42115L9.05992 1.42114C8.17268 0.816963 7.15671 0.500018 6.11876 0.500018C5.36992 0.500018 4.64527 0.659759 3.95844 0.978226L3.95787 0.978492C3.29368 1.28544 2.69203 1.72821 2.17239 2.29632L2.17175 2.29702C1.65549 2.8593 1.24052 3.53207 0.952698 4.27846L0.942971 9.23938ZM0.942971 9.23938C0.646256 8.37333 0.5 7.53135 0.5 6.73193C0.5 5.88038 0.653316 5.05504 0.952684 4.2785L0.942971 9.23938Z" stroke="#931332"/>
</svg>
